<?xml version="1.0" encoding="iso-8859-1"?>
<!-- Generator: Adobe Illustrator 18.0.0, SVG Export Plug-In . SVG Version: 6.00 Build 0)  -->
<!DOCTYPE svg PUBLIC "-//W3C//DTD SVG 1.1//EN" "http://www.w3.org/Graphics/SVG/1.1/DTD/svg11.dtd">
<svg version="1.1" id="Capa_1" xmlns="http://www.w3.org/2000/svg" xmlns:xlink="http://www.w3.org/1999/xlink" x="0px" y="0px"
	 viewBox="0 0 32 32" style="enable-background:new 0 0 32 32;" xml:space="preserve">
<g id="user">
	<g>
		<path style="fill-rule:evenodd;clip-rule:evenodd;" d="M25.969,23.969c-6.031,0-6.969-1.387-6.969-1.721V20.23
			c2.931-1.558,5-5.324,5-9.73C24,4.701,20.418,0,16,0S8,4.701,8,10.5c0,4.405,2.069,8.171,5,9.73v2.018c0,0.417-1,1.721-7,1.721
			S0,32,0,32h32C32,32,32.093,23.969,25.969,23.969z M10,10.531c0-4.694,2.679-8.5,5.984-8.5c3.305,0,5.984,3.806,5.984,8.5
			c0,4.694-2.679,8.5-5.984,8.5C12.679,19.031,10,15.226,10,10.531z M3,30.031c0,0,0-4,4-4c5.256,0,8-1.51,8-2.817
			C15,23,15,21,15,21h2c0,0,0,1.459,0,2.214c0,1.474,2.717,2.817,8,2.817c4,0,4,4,4,4H3z"/>
	</g>
</g>
<g>
</g>
<g>
</g>
<g>
</g>
<g>
</g>
<g>
</g>
<g>
</g>
<g>
</g>
<g>
</g>
<g>
</g>
<g>
</g>
<g>
</g>
<g>
</g>
<g>
</g>
<g>
</g>
<g>
</g>
</svg>
